<svg width="3619" height="3619" viewBox="0 0 3619 3619" fill="none" xmlns="http://www.w3.org/2000/svg">
<g clip-path="url(#clip0)">
<path d="M0 0H3618.6V3618.6H0V0Z" fill="#222222"/>
<path d="M1806.5 2050C1939.88 2050 2048 1941.65 2048 1808C2048 1674.35 1939.88 1566 1806.5 1566C1673.12 1566 1565 1674.35 1565 1808C1565 1941.65 1673.12 2050 1806.5 2050Z" fill="#00D8FF"/>
<path d="M1806.54 1316C2131.27 1316 2432.99 1362.59 2660.43 1440.83C2934.48 1535.13 3103 1678.1 3103 1807.56C3103 1942.46 2924.4 2094.38 2630.13 2191.8C2407.64 2265.48 2114.81 2304 1806.54 2304C1490.44 2304 1191.21 2267.88 966.163 2191C681.481 2093.74 510 1939.9 510 1807.56C510 1679.14 670.928 1537.29 941.141 1443.15C1169.46 1363.63 1478.61 1316 1806.54 1316V1316Z" stroke="#00D8FF" stroke-width="144.746" stroke-miterlimit="10"/>
<path d="M1378.19 1563.17C1540.46 1281.86 1731.69 1043.81 1913.24 885.928C2131.98 695.673 2340.16 621.17 2452.37 685.841C2569.3 753.229 2611.77 983.853 2549.14 1287.54C2501.8 1517.12 2388.87 1789.96 2234.75 2057.03C2076.8 2330.82 1895.89 2572 1716.81 2728.52C1490.24 2926.53 1271.1 2998.15 1156.41 2932.04C1045.08 2867.85 1002.53 2657.61 1055.88 2376.47C1100.99 2138.73 1214.23 1847.19 1378.19 1563.17V1563.17Z" stroke="#00D8FF" stroke-width="144.746" stroke-miterlimit="10"/>
<path d="M1378.63 2057.88C1216 1776.85 1105.22 1492.46 1059.03 1256.42C1003.41 972.033 1042.73 754.544 1154.78 689.72C1271.54 622.1 1492.44 700.511 1724.21 906.33C1899.48 1061.95 2079.38 1295.99 2233.79 1562.79C2392.11 1836.31 2510.8 2113.35 2556.91 2346.51C2615.33 2641.61 2568.02 2867.09 2453.49 2933.35C2342.32 2997.7 2139 2929.6 1922.1 2742.96C1738.92 2585.26 1542.87 2341.63 1378.63 2057.88V2057.88Z" stroke="#00D8FF" stroke-width="144.746" stroke-miterlimit="10"/>
</g>
<defs>
<clipPath id="clip0">
<rect width="3618.6" height="3618.6" fill="white"/>
</clipPath>
</defs>
</svg>
